{"title":"Night Vision 2011 HDTVRip XviD Ac3 Feel-Free","uid":7192436,"size":940202876,"categoryP":"video","categoryS":"movies","magnet":"?xt=urn:btih:efb70a58e98ca5a00efebfc62ecdcebad942051e&amp;dn=Night+Vision+2011+HDTVRip+XviD+Ac3+Feel-Free&amp;tr=udp%3A%2F%2Ftracker.openbittorrent.com%3A80&amp;tr=udp%3A%2F%2Fopen.demonii.com%3A1337&amp;tr=udp%3A%2F%2Ftracker.coppersurfer.tk%3A6969&amp;tr=udp%3A%2F%2Fexodus.desync.com%3A6969","seeders":0,"leechers":2,"uploader":".BONE.","files":8,"time":1334673100,"description":"Genre:Thriller\nLanguage:English &lt;a href=&quot;\nhttp://www.imdb.com/title/tt1667317/&quot; rel=&quot;nofollow&quot; target=&quot;_NEW&quot;&gt;\nhttp://www.imdb.com/title/tt1667317/&lt;/a&gt;\nSource:SIC Thanks!\nEncoder:Tony\n\nFormat : AVI\nFormat/Info : Audio Video Interleave\nFile size : 896 MiB\nDuration : 1h 28mn\nOverall bit rate : 1 419 Kbps\n\nVideo\nID : 0\nFormat : MPEG-4 Visual\nFormat profile : Advanced Simple@L5\nFormat settings, BVOP : 1\nFormat settings, QPel : No\nFormat settings, GMC : No warppoints\nFormat settings, Matrix : Default (H.263)\nCodec ID : XVID\nCodec ID/Hint : XviD\nDuration : 1h 28mn\nBit rate : 962 Kbps\nWidth : 640 pixels\nHeight : 352 pixels\nDisplay aspect ratio : 16:9\nFrame rate : 23.976 fps\nColor space : YUV\nChroma subsampling : 4:2:0\nBit depth : 8 bits\nScan type : Progressive\nCompression mode : Lossy\nBits/(Pixel*Frame) : 0.178\nStream size : 607 MiB (68%)\nWriting library : XviD 1.2.1 (UTC 2008-12-04)\n\nAudio\nID : 1\nFormat : AC-3\nFormat/Info : Audio Coding 3\nMode extension : CM (complete main)\nCodec ID : 2000\nDuration : 1h 28mn\nBit rate mode : Constant\nBit rate : 448 Kbps\nChannel(s) : 6 channels\nChannel positions : Front: L C R, Side: L R, LFE\nSampling rate : 48.0 KHz\nBit depth : 16 bits\nCompression mode : Lossy\nStream size : 283 MiB (32%)\nAlignment : Aligned on interleaves\nInterleave, duration : 42 ms (1.00 video frame)\nInterleave, preload duration : 512 ms\n\n\nPlot:\nA womanizing reality-TV producer (Spencer) unwittingly sleeps with a mysterious woman (Alison), who turns out to be his own stalker...\n","torrent":{"xt":"urn:btih:efb70a58e98ca5a00efebfc62ecdcebad942051e","amp;dn":"Night+Vision+2011+HDTVRip+XviD+Ac3+Feel-Free","amp;tr":["udp%3A%2F%2Ftracker.openbittorrent.com%3A80","udp%3A%2F%2Fopen.demonii.com%3A1337","udp%3A%2F%2Ftracker.coppersurfer.tk%3A6969","udp%3A%2F%2Fexodus.desync.com%3A6969"],"infoHash":"efb70a58e98ca5a00efebfc62ecdcebad942051e","infoHashBuffer":{"type":"Buffer","data":[239,183,10,88,233,140,165,160,14,254,191,198,46,205,206,186,217,66,5,30]},"announce":[],"urlList":[]}}